<svg width="451" height="451" viewBox="0 0 451 451" fill="none" xmlns="http://www.w3.org/2000/svg">
<g clip-path="url(#clip0_4_19)">
<path d="M240.304 331.427L270.4 306.958L192.103 210.649L162.006 235.117L240.304 331.427Z" fill="url(#paint0_linear_4_19)"/>
<path d="M240.257 171.5L276.373 142.138L119.824 109.446L83.7079 138.808L240.257 171.5Z" fill="url(#paint1_linear_4_19)"/>
<path d="M83.7544 298.734L83.7079 138.808L240.257 171.5L162.006 235.117L240.304 331.427L83.7544 298.734Z" fill="url(#paint2_linear_4_19)"/>
</g>
<g clip-path="url(#clip1_4_19)">
<path d="M330.289 180.787L330.336 340.714L366.452 311.352L366.405 151.426L330.289 180.787Z" fill="url(#paint3_linear_4_19)"/>
<path d="M330.336 340.714L252.038 244.404L330.289 180.787L330.336 340.714Z" fill="url(#paint4_linear_4_19)"/>
</g>
<defs>
<linearGradient id="paint0_linear_4_19" x1="176.96" y1="222.959" x2="255.182" y2="319.175" gradientUnits="userSpaceOnUse">
<stop stop-color="#5D00F4"/>
<stop offset="0.482292" stop-color="#D800DC"/>
<stop offset="1" stop-color="#FF00A2"/>
</linearGradient>
<linearGradient id="paint1_linear_4_19" x1="163.455" y1="154.035" x2="171.691" y2="118.986" gradientUnits="userSpaceOnUse">
<stop stop-color="#FF1F00"/>
<stop offset="0.909375" stop-color="#FFA200"/>
</linearGradient>
<linearGradient id="paint2_linear_4_19" x1="84" y1="233" x2="233" y2="250" gradientUnits="userSpaceOnUse">
<stop stop-color="#E7E7E7"/>
<stop offset="0.773958" stop-color="white"/>
</linearGradient>
<linearGradient id="paint3_linear_4_19" x1="330.545" y1="260.484" x2="366.779" y2="260.667" gradientUnits="userSpaceOnUse">
<stop stop-color="#0062FF"/>
<stop offset="1" stop-color="#00A3FF"/>
</linearGradient>
<linearGradient id="paint4_linear_4_19" x1="252" y1="245" x2="345" y2="253.5" gradientUnits="userSpaceOnUse">
<stop stop-color="#F9F9F9"/>
<stop offset="1" stop-color="white"/>
</linearGradient>
<clipPath id="clip0_4_19">
<rect width="256" height="256" fill="white" transform="translate(161.489 400.5) rotate(-129.11)"/>
</clipPath>
<clipPath id="clip1_4_19">
<rect width="256" height="256" fill="white" transform="translate(251.521 409.787) rotate(-129.11)"/>
</clipPath>
</defs>
</svg>
